<svg width="292" height="255" viewBox="0 0 292 255" fill="none" xmlns="http://www.w3.org/2000/svg">
<path d="M17 20C106.917 20 123.722 20 126.36 20H178.601H189.682H221.343H229.258H246.969H252.767C258.027 20 263.114 21.8855 267.105 25.3124V25.3124C268.269 26.3123 269.212 27.5454 269.871 28.9315V28.9315C271.273 31.8803 272 35.1043 272 38.3694V44.0123V54.5588L272 69.6018V78.5475V78.5475C272 83.2919 269.467 87.6756 265.357 90.0456L264.427 90.582C262.129 91.9074 259.522 92.6051 256.869 92.6051H226.092H150.106M150.106 92.6051V255M150.106 92.6051L33.5847 90.0492H29.3718C24.2671 90.0492 20.1289 94.1874 20.1289 99.2921V99.2921V102.829C20.1289 102.403 20.1289 102.318 20.1289 105.385C20.1289 108.452 20.1289 115.226 20.1289 118.207V126.044V134.426V139.255V144.412V151.324V155.058V157.907V169.794V174.003V175.839L20.1289 179.5V181.5V185L20.2746 187.186C20.3439 188.226 20.5294 189.254 20.8277 190.251L21.3638 192.044C21.4532 192.343 21.6155 192.616 21.8362 192.836V192.836C21.945 192.945 22.04 193.067 22.1192 193.199L22.8538 194.423C24.2697 196.783 26.1524 198.829 28.3867 200.436L29.7526 201.418C31.8641 202.936 34.3992 203.753 37 203.753V203.753H44.5H51.5H59.5H64.5H69H73.5H78.5H82.5H86.5H95H100H106.382H112.342M109.362 203.753H122.027H126.72H137.671H148.752H158.008H173.652H184.603H195.554H211.059H229.66H241.456H248.165H253.003H255.176C256.19 203.753 257.199 203.62 258.177 203.356L258.735 203.206C259.243 203.069 259.734 202.873 260.196 202.62V202.62C263.19 200.987 265.147 197.943 265.39 194.542L265.5 193V188L265.5 185L265.5 180.5L265.5 172.739V167.635V154.812V142.5V134.112" stroke="white" style="stroke:white;stroke:white;stroke-opacity:1;" stroke-width="40"/>
</svg>
